{"title":"The.Hangover.Part.II.2011.DVDRip.XviD-LTW","uid":6756340,"size":1573349376,"categoryP":"video","categoryS":"movies","magnet":"?xt=urn:btih:c7eadcc6b236e74f418cb0c191a8d1091f869b89&amp;dn=The.Hangover.Part.II.2011.DVDRip.XviD-LTW&amp;tr=udp%3A%2F%2Ftracker.openbittorrent.com%3A80&amp;tr=udp%3A%2F%2Fopen.demonii.com%3A1337&amp;tr=udp%3A%2F%2Ftracker.coppersurfer.tk%3A6969&amp;tr=udp%3A%2F%2Fexodus.desync.com%3A6969","seeders":1,"leechers":0,"uploader":"slimline1883","files":1,"time":1319045586,"description":" &lt;a href=&quot;http://www.hotimg.com/direct/MMhBmp9.jpg&quot; rel=&quot;nofollow&quot; target=&quot;_NEW&quot;&gt;http://www.hotimg.com/direct/MMhBmp9.jpg&lt;/a&gt;\n\nScreens\n &lt;a href=&quot;\nhttp://www.hotimg.com/direct/aVJz2DP.png&quot; rel=&quot;nofollow&quot; target=&quot;_NEW&quot;&gt;\nhttp://www.hotimg.com/direct/aVJz2DP.png&lt;/a&gt;\n &lt;a href=&quot;\nhttp://www.hotimg.com/direct/2qxt6Xy.png&quot; rel=&quot;nofollow&quot; target=&quot;_NEW&quot;&gt;\nhttp://www.hotimg.com/direct/2qxt6Xy.png&lt;/a&gt;\n &lt;a href=&quot;\nhttp://www.hotimg.com/direct/MBteUpA.png&quot; rel=&quot;nofollow&quot; target=&quot;_NEW&quot;&gt;\nhttp://www.hotimg.com/direct/MBteUpA.png&lt;/a&gt;\n &lt;a href=&quot;\nhttp://www.hotimg.com/direct/MWqqYYr.png&quot; rel=&quot;nofollow&quot; target=&quot;_NEW&quot;&gt;\nhttp://www.hotimg.com/direct/MWqqYYr.png&lt;/a&gt;\n\nDirector: Todd Phillips\nWriters: Craig Mazin, Scot Armstrong\nStars: Bradley Cooper, Zach Galifianakis and Ed Helms\n\nStoryline\nStu is getting married. Along with Doug, Phil, and his soon-to-be brother-in-law Teddy, he regretfully invites Alan to Thailand for the wedding. After a quiet night on the beach with a beer and toasting marshmallows by the camp fire, Stu, Alan and Phil wake up in a seedy apartment in Bangkok. Doug is back at the resort, but Teddy is missing, there's a monkey with a severed finger, Alan's head is shaved, Stu has a tattoo on his face, and they can't remember any of it. The wolf-pack retrace their steps through strip clubs, tattoo parlors and cocaine-dealing monkeys on the streets of Bangkok as they try and find Teddy before the wedding.\n\nIMDb: http://www.imdb.com/title/tt1411697/\n\nFormat                           : AVI\nFormat/Info                      : Audio Video Interleave\nFile size                        : 1.47 GiB\nDuration                         : 1h 37mn\nOverall bit rate                 : 2 150 Kbps\nWriting application              : VirtualDubMod 1.5.4.1 (build 2178/release)\nWriting library                  : VirtualDubMod build 2178/release\n\nVideo\n\nCodec ID                         : XVID\nDuration                         : 1h 37mn\nBit rate                         : 1 950 Kbps\nWidth                            : 672 pixels\nHeight                           : 288 pixels\nDisplay aspect ratio             : 2.35:1\nFrame rate                       : 29.970 fps\nColor space                      : YUV\nChroma subsampling               : 4:2:0\nBit depth                        : 8 bits\nScan type                        : Progressive\nCompression mode                 : Lossy\nBits/(Pixel*Frame)               : 0.336\nStream size                      : 1.33 GiB (91%)\nWriting library                  : XviD 1.2.1 (UTC 2008-12-04)\n\nAudio\n\nFormat                           : AC-3\nBit rate mode                    : Constant\nBit rate                         : 192 Kbps\nChannel(s)                       : 2 channels\nChannel positions                : Front: L R\nSampling rate                    : 48.0 KHz\nBit depth                        : 16 bits\nCompression mode                 : Lossy\nStream size                      : 134 MiB (9%)\nAlignment                        : Split accross interleaves\nInterleave, duration             : 96 ms (2.88 video frames)\nInterleave, preload duration     : 96 ms\nLanguage                         : English","torrent":{"xt":"urn:btih:c7eadcc6b236e74f418cb0c191a8d1091f869b89","amp;dn":"The.Hangover.Part.II.2011.DVDRip.XviD-LTW","amp;tr":["udp%3A%2F%2Ftracker.openbittorrent.com%3A80","udp%3A%2F%2Fopen.demonii.com%3A1337","udp%3A%2F%2Ftracker.coppersurfer.tk%3A6969","udp%3A%2F%2Fexodus.desync.com%3A6969"],"infoHash":"c7eadcc6b236e74f418cb0c191a8d1091f869b89","infoHashBuffer":{"type":"Buffer","data":[199,234,220,198,178,54,231,79,65,140,176,193,145,168,209,9,31,134,155,137]},"announce":[],"urlList":[]}}